<svg width="92" height="62" viewBox="0 0 92 62" fill="none" xmlns="http://www.w3.org/2000/svg">
<g clip-path="url(#clip0_38_172667)">
<path d="M81.8937 0L46.0275 33.2125L10.1063 0L0 14.3429L31.4173 55.6932L46.0275 42.2149L60.6376 55.7441L92.0549 14.3938L81.8937 0ZM32.351 45.8769L8.23881 14.2412L11.2048 10.0197L41.194 37.6883L32.351 45.8769ZM59.7039 45.8769L50.8609 37.6883L80.7952 9.96883L83.7612 14.1903L59.7039 45.8769Z" fill="#3C0F95"/>
<path d="M43.8854 61.1861C43.0615 60.4232 42.7869 59.2025 43.2812 58.1853L45.6979 53.2518C45.8078 52.9975 46.1373 52.9975 46.2472 53.2518L48.609 58.1345C49.1033 59.1517 48.8836 60.3215 48.0048 61.1353L47.9499 61.1861C46.8514 62.2542 45.0388 62.2542 43.8854 61.1861Z" fill="#3C0F95"/>
</g>
<defs>
<clipPath id="clip0_38_172667">
<rect width="92" height="62" fill="white"/>
</clipPath>
</defs>
</svg>
